<svg xmlns="http://www.w3.org/2000/svg" xmlns:xlink="http://www.w3.org/1999/xlink" width="640" height="602.75"><rect width="640" height="602.75" rx="5" ry="5" class="a"/><svg y="0%" x="0%"><circle cx="20" cy="20" r="6" fill="#ff5f58"/><circle cx="40" cy="20" r="6" fill="#ffbd2e"/><circle cx="60" cy="20" r="6" fill="#18c132"/></svg><svg height="542.75" viewBox="0 0 60 54.275" width="600" x="15" xmlns="http://www.w3.org/2000/svg" xmlns:xlink="http://www.w3.org/1999/xlink" y="50"><style>@keyframes p{0%{transform:translateX(0)}.19%{transform:translateX(-60px)}8.36%{transform:translateX(-120px)}11.99%{transform:translateX(-180px)}12.9%{transform:translateX(-240px)}14.96%{transform:translateX(-300px)}17.64%{transform:translateX(-360px)}18.58%{transform:translateX(-420px)}19.81%{transform:translateX(-480px)}22.73%{transform:translateX(-540px)}22.74%{transform:translateX(-600px)}22.81%{transform:translateX(-660px)}32.19%{transform:translateX(-720px)}33.19%{transform:translateX(-780px)}33.91%{transform:translateX(-840px)}34.87%{transform:translateX(-900px)}36.03%{transform:translateX(-960px)}38.1%{transform:translateX(-1020px)}39.52%{transform:translateX(-1080px)}40.09%{transform:translateX(-1140px)}41.03%{transform:translateX(-1200px)}41.66%{transform:translateX(-1260px)}42.36%{transform:translateX(-1320px)}43.46%{transform:translateX(-1380px)}44.77%{transform:translateX(-1440px)}46.91%{transform:translateX(-1500px)}52.58%{transform:translateX(-1560px)}53.16%{transform:translateX(-1620px)}53.17%{transform:translateX(-1680px)}53.18%{transform:translateX(-1800px)}53.27%{transform:translateX(-1860px)}64.71%{transform:translateX(-1920px)}65.61%{transform:translateX(-1980px)}66.52%{transform:translateX(-2040px)}67.32%{transform:translateX(-2100px)}70.38%{transform:translateX(-2160px)}71.34%{transform:translateX(-2220px)}72.65%{transform:translateX(-2280px)}78.83%{transform:translateX(-2340px)}78.85%{transform:translateX(-2400px)}78.93%{transform:translateX(-2460px)}to{transform:translateX(-2520px)}}.a{fill:#282d35}.f{fill:#71bef2}.g{fill:#b9bfca}.h{fill:#b9c0cb}.i,.j{fill:#d290e4}.j{text-decoration:underline}.l{fill:#a8cc8c}</style><g font-size="1.67" font-family="Monaco,Consolas,Menlo,'Bitstream Vera Sans Mono','Powerline Symbols',monospace"><defs><symbol id="1"><text y="1.67" class="f">~/repos/demo-project</text><text x="23.046" y="1.67" class="g">$</text></symbol><symbol id="2"><text y="1.67" class="f">~/repos/demo-project</text><text x="23.046" y="1.67" class="g">$</text><text x="25.05" y="1.67" class="h">c</text></symbol><symbol id="3"><text y="1.67" class="f">~/repos/demo-project</text><text x="23.046" y="1.67" class="g">$</text><text x="25.05" y="1.67" class="h">ca</text></symbol><symbol id="4"><text y="1.67" class="f">~/repos/demo-project</text><text x="23.046" y="1.67" class="g">$</text><text x="25.05" y="1.67" class="h">cat</text></symbol><symbol id="5"><text y="1.67" class="f">~/repos/demo-project</text><text x="23.046" y="1.67" class="g">$</text><text x="25.05" y="1.67" class="h">cat</text><text x="29.058" y="1.67" class="h">R</text></symbol><symbol id="6"><text y="1.67" class="f">~/repos/demo-project</text><text x="23.046" y="1.67" class="g">$</text><text x="25.05" y="1.67" class="h">cat</text><text x="29.058" y="1.67" class="h">RE</text></symbol><symbol id="7"><text y="1.67" class="f">~/repos/demo-project</text><text x="23.046" y="1.67" class="g">$</text><text x="25.05" y="1.67" class="h">cat</text><text x="29.058" y="1.67" class="h">README.md</text></symbol><symbol id="8"><text y="1.67" class="h">#</text><text x="2.004" y="1.67" class="h">My</text><text x="5.01" y="1.67" class="h">Awesome</text><text x="13.026" y="1.67" class="h">Project</text></symbol><symbol id="9"><text y="1.67" class="h">```ts</text></symbol><symbol id="10"><text y="1.67" class="h">//</text><text x="3.006" y="1.67" class="h">example.ts</text></symbol><symbol id="11"><text y="1.67" class="h">```</text></symbol><symbol id="12"><text y="1.67" class="f">~/repos/demo-project</text><text x="23.046" y="1.67" class="g">$</text><text x="25.05" y="1.67" class="h">npx</text></symbol><symbol id="13"><text y="1.67" class="f">~/repos/demo-project</text><text x="23.046" y="1.67" class="g">$</text><text x="25.05" y="1.67" class="h">npx</text><text x="29.058" y="1.67" class="h">embedme</text></symbol><symbol id="14"><text y="1.67" class="f">~/repos/demo-project</text><text x="23.046" y="1.67" class="g">$</text><text x="25.05" y="1.67" class="h">npx</text><text x="29.058" y="1.67" class="h">embedme</text><text x="37.074" y="1.67" class="h">README.md</text></symbol><symbol id="15"><text y="1.67" class="f">Embedding...</text></symbol><symbol id="16"><text x="2.004" y="1.67" class="i">Analysing</text><text x="12.024" y="1.67" class="j">README.md</text><text x="21.042" y="1.67" class="i">...</text></symbol><symbol id="17"><text x="3.006" y="1.67" fill="#6f7783">README.md#L3-L10</text><text x="20.04" y="1.67" class="l">Embedded</text><text x="29.058" y="1.67" class="l">4</text><text x="31.062" y="1.67" class="l">lines</text><text x="37.074" y="1.67" class="l">from</text><text x="42.084" y="1.67" class="l">file</text><text x="47.094" y="1.67" fill="#a8cc8c" text-decoration="underline">example.ts</text></symbol><symbol id="18"><text x="2.004" y="1.67" class="i">Writing</text><text x="10.02" y="1.67" class="j">README.md</text><text x="20.04" y="1.67" class="i">with</text><text x="25.05" y="1.67" class="i">embedded</text><text x="34.068" y="1.67" class="i">changes.</text></symbol><symbol id="19"><text y="1.67" class="h">export</text><text x="7.014" y="1.67" class="h">function</text><text x="16.032" y="1.67" class="h">helloWorld(name:</text><text x="33.066" y="1.67" class="h">string):</text><text x="42.084" y="1.67" class="h">string</text><text x="49.098" y="1.67" class="h">{</text></symbol><symbol id="20"><text x="2.004" y="1.67" class="h">return</text><text x="9.018" y="1.67" class="h">`Hello</text><text x="16.032" y="1.67" class="h">${name}!,</text><text x="26.052" y="1.67" class="h">how</text><text x="30.06" y="1.67" class="h">are</text><text x="34.068" y="1.67" class="h">you</text><text x="38.076" y="1.67" class="h">today?`;</text></symbol><symbol id="21"><text y="1.67" class="h">}</text></symbol><symbol id="a"><path fill="transparent" d="M0 0h60v26H0z"/></symbol><symbol id="b"><path fill="#6f7683" d="M0 0h1.102v2.171H0z"/></symbol></defs><path class="a" d="M0 0h60v54.275H0z"/><g style="animation-duration:18.309716s;animation-iteration-count:infinite;animation-name:p;animation-timing-function:steps(1,end)"><svg width="2580"><svg><use xlink:href="#a"/><use xlink:href="#b" x="-.004"/></svg><svg x="60"><use xlink:href="#a"/><use xlink:href="#b" x="24.996"/><use xlink:href="#1"/></svg><svg x="120"><use xlink:href="#a"/><use xlink:href="#b" x="25.996"/><use xlink:href="#2"/></svg><svg x="180"><use xlink:href="#a"/><use xlink:href="#b" x="26.996"/><use xlink:href="#3"/></svg><svg x="240"><use xlink:href="#a"/><use xlink:href="#b" x="27.996"/><use xlink:href="#4"/></svg><svg x="300"><use xlink:href="#a"/><use xlink:href="#b" x="28.996"/><use xlink:href="#4"/></svg><svg x="360"><use xlink:href="#a"/><use xlink:href="#b" x="29.996"/><use xlink:href="#5"/></svg><svg x="420"><use xlink:href="#a"/><use xlink:href="#b" x="30.996"/><use xlink:href="#6"/></svg><svg x="480"><use xlink:href="#a"/><use xlink:href="#b" x="38.996"/><use xlink:href="#7"/></svg><svg x="540"><use xlink:href="#a"/><use xlink:href="#b" x="-.004" y="2.146"/><use xlink:href="#7"/></svg><svg x="600"><use xlink:href="#a"/><use xlink:href="#b" x="-.004" y="13.001"/><use xlink:href="#7"/><use xlink:href="#8" y="2.171"/><use xlink:href="#9" y="6.513"/><use xlink:href="#10" y="8.684"/><use xlink:href="#11" y="10.855"/></svg><svg x="660"><use xlink:href="#a"/><use xlink:href="#b" x="24.996" y="13.001"/><use xlink:href="#7"/><use xlink:href="#8" y="2.171"/><use xlink:href="#9" y="6.513"/><use xlink:href="#10" y="8.684"/><use xlink:href="#11" y="10.855"/><use xlink:href="#1" y="13.026"/></svg><svg x="720"><use xlink:href="#a"/><use xlink:href="#b" x="25.996" y="13.001"/><use xlink:href="#7"/><use xlink:href="#8" y="2.171"/><use xlink:href="#9" y="6.513"/><use xlink:href="#10" y="8.684"/><use xlink:href="#11" y="10.855"/><text y="14.696" class="f">~/repos/demo-project</text><text x="23.046" y="14.696" class="g">$</text><text x="25.05" y="14.696" class="h">n</text></svg><svg x="780"><use xlink:href="#a"/><use xlink:href="#b" x="26.996" y="13.001"/><use xlink:href="#7"/><use xlink:href="#8" y="2.171"/><use xlink:href="#9" y="6.513"/><use xlink:href="#10" y="8.684"/><use xlink:href="#11" y="10.855"/><text y="14.696" class="f">~/repos/demo-project</text><text x="23.046" y="14.696" class="g">$</text><text x="25.05" y="14.696" class="h">np</text></svg><svg x="840"><use xlink:href="#a"/><use xlink:href="#b" x="27.996" y="13.001"/><use xlink:href="#7"/><use xlink:href="#8" y="2.171"/><use xlink:href="#9" y="6.513"/><use xlink:href="#10" y="8.684"/><use xlink:href="#11" y="10.855"/><use xlink:href="#12" y="13.026"/></svg><svg x="900"><use xlink:href="#a"/><use xlink:href="#b" x="28.996" y="13.001"/><use xlink:href="#7"/><use xlink:href="#8" y="2.171"/><use xlink:href="#9" y="6.513"/><use xlink:href="#10" y="8.684"/><use xlink:href="#11" y="10.855"/><use xlink:href="#12" y="13.026"/></svg><svg x="960"><use xlink:href="#a"/><use xlink:href="#b" x="29.996" y="13.001"/><use xlink:href="#7"/><use xlink:href="#8" y="2.171"/><use xlink:href="#9" y="6.513"/><use xlink:href="#10" y="8.684"/><use xlink:href="#11" y="10.855"/><text y="14.696" class="f">~/repos/demo-project</text><text x="23.046" y="14.696" class="g">$</text><text x="25.05" y="14.696" class="h">npx</text><text x="29.058" y="14.696" class="h">e</text></svg><svg x="1020"><use xlink:href="#a"/><use xlink:href="#b" x="30.996" y="13.001"/><use xlink:href="#7"/><use xlink:href="#8" y="2.171"/><use xlink:href="#9" y="6.513"/><use xlink:href="#10" y="8.684"/><use xlink:href="#11" y="10.855"/><text y="14.696" class="f">~/repos/demo-project</text><text x="23.046" y="14.696" class="g">$</text><text x="25.05" y="14.696" class="h">npx</text><text x="29.058" y="14.696" class="h">em</text></svg><svg x="1080"><use xlink:href="#a"/><use xlink:href="#b" x="31.996" y="13.001"/><use xlink:href="#7"/><use xlink:href="#8" y="2.171"/><use xlink:href="#9" y="6.513"/><use xlink:href="#10" y="8.684"/><use xlink:href="#11" y="10.855"/><text y="14.696" class="f">~/repos/demo-project</text><text x="23.046" y="14.696" class="g">$</text><text x="25.05" y="14.696" class="h">npx</text><text x="29.058" y="14.696" class="h">emb</text></svg><svg x="1140"><use xlink:href="#a"/><use xlink:href="#b" x="32.996" y="13.001"/><use xlink:href="#7"/><use xlink:href="#8" y="2.171"/><use xlink:href="#9" y="6.513"/><use xlink:href="#10" y="8.684"/><use xlink:href="#11" y="10.855"/><text y="14.696" class="f">~/repos/demo-project</text><text x="23.046" y="14.696" class="g">$</text><text x="25.05" y="14.696" class="h">npx</text><text x="29.058" y="14.696" class="h">embe</text></svg><svg x="1200"><use xlink:href="#a"/><use xlink:href="#b" x="33.996" y="13.001"/><use xlink:href="#7"/><use xlink:href="#8" y="2.171"/><use xlink:href="#9" y="6.513"/><use xlink:href="#10" y="8.684"/><use xlink:href="#11" y="10.855"/><text y="14.696" class="f">~/repos/demo-project</text><text x="23.046" y="14.696" class="g">$</text><text x="25.05" y="14.696" class="h">npx</text><text x="29.058" y="14.696" class="h">embed</text></svg><svg x="1260"><use xlink:href="#a"/><use xlink:href="#b" x="34.996" y="13.001"/><use xlink:href="#7"/><use xlink:href="#8" y="2.171"/><use xlink:href="#9" y="6.513"/><use xlink:href="#10" y="8.684"/><use xlink:href="#11" y="10.855"/><text y="14.696" class="f">~/repos/demo-project</text><text x="23.046" y="14.696" class="g">$</text><text x="25.05" y="14.696" class="h">npx</text><text x="29.058" y="14.696" class="h">embedm</text></svg><svg x="1320"><use xlink:href="#a"/><use xlink:href="#b" x="35.996" y="13.001"/><use xlink:href="#7"/><use xlink:href="#8" y="2.171"/><use xlink:href="#9" y="6.513"/><use xlink:href="#10" y="8.684"/><use xlink:href="#11" y="10.855"/><use xlink:href="#13" y="13.026"/></svg><svg x="1380"><use xlink:href="#a"/><use xlink:href="#b" x="36.996" y="13.001"/><use xlink:href="#7"/><use xlink:href="#8" y="2.171"/><use xlink:href="#9" y="6.513"/><use xlink:href="#10" y="8.684"/><use xlink:href="#11" y="10.855"/><use xlink:href="#13" y="13.026"/></svg><svg x="1440"><use xlink:href="#a"/><use xlink:href="#b" x="37.996" y="13.001"/><use xlink:href="#7"/><use xlink:href="#8" y="2.171"/><use xlink:href="#9" y="6.513"/><use xlink:href="#10" y="8.684"/><use xlink:href="#11" y="10.855"/><text y="14.696" class="f">~/repos/demo-project</text><text x="23.046" y="14.696" class="g">$</text><text x="25.05" y="14.696" class="h">npx</text><text x="29.058" y="14.696" class="h">embedme</text><text x="37.074" y="14.696" class="h">R</text></svg><svg x="1500"><use xlink:href="#a"/><use xlink:href="#b" x="46.996" y="13.001"/><use xlink:href="#7"/><use xlink:href="#8" y="2.171"/><use xlink:href="#9" y="6.513"/><use xlink:href="#10" y="8.684"/><use xlink:href="#11" y="10.855"/><use xlink:href="#14" y="13.026"/></svg><svg x="1560"><use xlink:href="#a"/><use xlink:href="#b" x="-.004" y="15.172"/><use xlink:href="#7"/><use xlink:href="#8" y="2.171"/><use xlink:href="#9" y="6.513"/><use xlink:href="#10" y="8.684"/><use xlink:href="#11" y="10.855"/><use xlink:href="#14" y="13.026"/></svg><svg x="1620"><use xlink:href="#a"/><use xlink:href="#b" x="-.004" y="17.343"/><use xlink:href="#7"/><use xlink:href="#8" y="2.171"/><use xlink:href="#9" y="6.513"/><use xlink:href="#10" y="8.684"/><use xlink:href="#11" y="10.855"/><use xlink:href="#14" y="13.026"/><use xlink:href="#15" y="15.197"/></svg><svg x="1680"><use xlink:href="#a"/><use xlink:href="#b" x="-.004" y="19.514"/><use xlink:href="#7"/><use xlink:href="#8" y="2.171"/><use xlink:href="#9" y="6.513"/><use xlink:href="#10" y="8.684"/><use xlink:href="#11" y="10.855"/><use xlink:href="#14" y="13.026"/><use xlink:href="#15" y="15.197"/><use xlink:href="#16" y="17.368"/></svg><svg x="1740"><use xlink:href="#a"/><use xlink:href="#b" x="-.004" y="21.685"/><use xlink:href="#7"/><use xlink:href="#8" y="2.171"/><use xlink:href="#9" y="6.513"/><use xlink:href="#10" y="8.684"/><use xlink:href="#11" y="10.855"/><use xlink:href="#14" y="13.026"/><use xlink:href="#15" y="15.197"/><use xlink:href="#16" y="17.368"/><use xlink:href="#17" y="19.539"/></svg><svg x="1800"><use xlink:href="#a"/><use xlink:href="#b" x="-.004" y="23.856"/><use xlink:href="#7"/><use xlink:href="#8" y="2.171"/><use xlink:href="#9" y="6.513"/><use xlink:href="#10" y="8.684"/><use xlink:href="#11" y="10.855"/><use xlink:href="#14" y="13.026"/><use xlink:href="#15" y="15.197"/><use xlink:href="#16" y="17.368"/><use xlink:href="#17" y="19.539"/><use xlink:href="#18" y="21.71"/></svg><svg x="1860"><use xlink:href="#a"/><use xlink:href="#b" x="24.996" y="23.856"/><use xlink:href="#7"/><use xlink:href="#8" y="2.171"/><use xlink:href="#9" y="6.513"/><use xlink:href="#10" y="8.684"/><use xlink:href="#11" y="10.855"/><use xlink:href="#14" y="13.026"/><use xlink:href="#15" y="15.197"/><use xlink:href="#16" y="17.368"/><use xlink:href="#17" y="19.539"/><use xlink:href="#18" y="21.71"/><use xlink:href="#1" y="23.881"/></svg><svg x="1920"><use xlink:href="#a"/><use xlink:href="#b" x="25.996" y="23.856"/><use xlink:href="#7"/><use xlink:href="#8" y="2.171"/><use xlink:href="#9" y="6.513"/><use xlink:href="#10" y="8.684"/><use xlink:href="#11" y="10.855"/><use xlink:href="#14" y="13.026"/><use xlink:href="#15" y="15.197"/><use xlink:href="#16" y="17.368"/><use xlink:href="#17" y="19.539"/><use xlink:href="#18" y="21.71"/><use xlink:href="#2" y="23.881"/></svg><svg x="1980"><use xlink:href="#a"/><use xlink:href="#b" x="26.996" y="23.856"/><use xlink:href="#7"/><use xlink:href="#8" y="2.171"/><use xlink:href="#9" y="6.513"/><use xlink:href="#10" y="8.684"/><use xlink:href="#11" y="10.855"/><use xlink:href="#14" y="13.026"/><use xlink:href="#15" y="15.197"/><use xlink:href="#16" y="17.368"/><use xlink:href="#17" y="19.539"/><use xlink:href="#18" y="21.71"/><use xlink:href="#3" y="23.881"/></svg><svg x="2040"><use xlink:href="#a"/><use xlink:href="#b" x="27.996" y="23.856"/><use xlink:href="#7"/><use xlink:href="#8" y="2.171"/><use xlink:href="#9" y="6.513"/><use xlink:href="#10" y="8.684"/><use xlink:href="#11" y="10.855"/><use xlink:href="#14" y="13.026"/><use xlink:href="#15" y="15.197"/><use xlink:href="#16" y="17.368"/><use xlink:href="#17" y="19.539"/><use xlink:href="#18" y="21.71"/><use xlink:href="#4" y="23.881"/></svg><svg x="2100"><use xlink:href="#a"/><use xlink:href="#b" x="28.996" y="23.856"/><use xlink:href="#7"/><use xlink:href="#8" y="2.171"/><use xlink:href="#9" y="6.513"/><use xlink:href="#10" y="8.684"/><use xlink:href="#11" y="10.855"/><use xlink:href="#14" y="13.026"/><use xlink:href="#15" y="15.197"/><use xlink:href="#16" y="17.368"/><use xlink:href="#17" y="19.539"/><use xlink:href="#18" y="21.71"/><use xlink:href="#4" y="23.881"/></svg><svg x="2160"><use xlink:href="#a"/><use xlink:href="#b" x="29.996" y="23.856"/><use xlink:href="#7"/><use xlink:href="#8" y="2.171"/><use xlink:href="#9" y="6.513"/><use xlink:href="#10" y="8.684"/><use xlink:href="#11" y="10.855"/><use xlink:href="#14" y="13.026"/><use xlink:href="#15" y="15.197"/><use xlink:href="#16" y="17.368"/><use xlink:href="#17" y="19.539"/><use xlink:href="#18" y="21.71"/><use xlink:href="#5" y="23.881"/></svg><svg x="2220"><use xlink:href="#a"/><use xlink:href="#b" x="30.996" y="23.856"/><use xlink:href="#7"/><use xlink:href="#8" y="2.171"/><use xlink:href="#9" y="6.513"/><use xlink:href="#10" y="8.684"/><use xlink:href="#11" y="10.855"/><use xlink:href="#14" y="13.026"/><use xlink:href="#15" y="15.197"/><use xlink:href="#16" y="17.368"/><use xlink:href="#17" y="19.539"/><use xlink:href="#18" y="21.71"/><use xlink:href="#6" y="23.881"/></svg><svg x="2280"><use xlink:href="#a"/><use xlink:href="#b" x="38.996" y="23.856"/><use xlink:href="#7"/><use xlink:href="#8" y="2.171"/><use xlink:href="#9" y="6.513"/><use xlink:href="#10" y="8.684"/><use xlink:href="#11" y="10.855"/><use xlink:href="#14" y="13.026"/><use xlink:href="#15" y="15.197"/><use xlink:href="#16" y="17.368"/><use xlink:href="#17" y="19.539"/><use xlink:href="#18" y="21.71"/><use xlink:href="#7" y="23.881"/></svg><svg x="2340"><use xlink:href="#a"/><use xlink:href="#b" x="-.004" y="26.027"/><use xlink:href="#7"/><use xlink:href="#8" y="2.171"/><use xlink:href="#9" y="6.513"/><use xlink:href="#10" y="8.684"/><use xlink:href="#11" y="10.855"/><use xlink:href="#14" y="13.026"/><use xlink:href="#15" y="15.197"/><use xlink:href="#16" y="17.368"/><use xlink:href="#17" y="19.539"/><use xlink:href="#18" y="21.71"/><use xlink:href="#7" y="23.881"/></svg><svg x="2400"><use xlink:href="#a"/><use xlink:href="#b" x="-.004" y="47.737"/><use xlink:href="#7"/><use xlink:href="#8" y="2.171"/><use xlink:href="#9" y="6.513"/><use xlink:href="#10" y="8.684"/><use xlink:href="#11" y="10.855"/><use xlink:href="#14" y="13.026"/><use xlink:href="#15" y="15.197"/><use xlink:href="#16" y="17.368"/><use xlink:href="#17" y="19.539"/><use xlink:href="#18" y="21.71"/><use xlink:href="#7" y="23.881"/><use xlink:href="#8" y="26.052"/><use xlink:href="#9" y="30.394"/><use xlink:href="#10" y="32.565"/><use xlink:href="#19" y="36.907"/><use xlink:href="#20" y="39.078"/><use xlink:href="#21" y="41.249"/><use xlink:href="#11" y="45.591"/></svg><svg x="2460"><use xlink:href="#a"/><use xlink:href="#b" x="24.996" y="47.737"/><use xlink:href="#7"/><use xlink:href="#8" y="2.171"/><use xlink:href="#9" y="6.513"/><use xlink:href="#10" y="8.684"/><use xlink:href="#11" y="10.855"/><use xlink:href="#14" y="13.026"/><use xlink:href="#15" y="15.197"/><use xlink:href="#16" y="17.368"/><use xlink:href="#17" y="19.539"/><use xlink:href="#18" y="21.71"/><use xlink:href="#7" y="23.881"/><use xlink:href="#8" y="26.052"/><use xlink:href="#9" y="30.394"/><use xlink:href="#10" y="32.565"/><use xlink:href="#19" y="36.907"/><use xlink:href="#20" y="39.078"/><use xlink:href="#21" y="41.249"/><use xlink:href="#11" y="45.591"/><use xlink:href="#1" y="47.762"/></svg><svg x="2520"><use xlink:href="#a"/><use xlink:href="#b" x="-.004" y="49.908"/><use xlink:href="#7"/><use xlink:href="#8" y="2.171"/><use xlink:href="#9" y="6.513"/><use xlink:href="#10" y="8.684"/><use xlink:href="#11" y="10.855"/><use xlink:href="#14" y="13.026"/><use xlink:href="#15" y="15.197"/><use xlink:href="#16" y="17.368"/><use xlink:href="#17" y="19.539"/><use xlink:href="#18" y="21.71"/><use xlink:href="#7" y="23.881"/><use xlink:href="#8" y="26.052"/><use xlink:href="#9" y="30.394"/><use xlink:href="#10" y="32.565"/><use xlink:href="#19" y="36.907"/><use xlink:href="#20" y="39.078"/><use xlink:href="#21" y="41.249"/><use xlink:href="#11" y="45.591"/><text y="49.432" class="f">~/repos/demo-project</text><text x="23.046" y="49.432" class="g">$</text><text x="25.05" y="49.432" class="h">exit</text></svg></svg></g></g></svg></svg>